<svg width="298" height="54" viewBox="0 0 298 54" fill="none" xmlns="http://www.w3.org/2000/svg">
<g clip-path="url(#clip0_87_1275)">
<path d="M17.6496 46.8518C14.4128 46.056 11.3067 45.0613 9.0424 42.2334C9.0424 42.2334 9.02788 42.205 9.01337 42.1907C8.96983 42.1339 8.92628 42.0771 8.88274 42.0202C8.82468 41.9492 8.76662 41.8781 8.70856 41.7929C8.70856 41.7929 8.70856 41.7786 8.69405 41.7644C8.60696 41.6507 8.53439 41.5371 8.46181 41.4092C3.49781 33.7781 9.52138 21.1023 21.9459 13.0876C28.013 9.16548 34.4866 7.06232 40.1037 6.86338C43.2389 6.7639 45.9096 7.77285 47.3175 9.93285C49.9882 14.0255 47.0707 20.6334 40.8004 24.6834C38.4055 26.2323 35.8654 27.1844 33.485 27.5255L39.886 14.8781H26.3729L12.7001 42.0629H26.1987L31.6417 31.1207L40.2344 43.0576C42.4115 42.1765 44.5887 41.0681 46.6934 39.7039C59.4082 31.4902 65.8237 16.8392 59.9888 7.85811C53.0653 -2.77136 34.0221 -2.43031 18.4043 7.64495C2.78659 17.7486 -4.26752 34.5313 2.65596 45.1607C2.78659 45.3597 2.93174 45.5586 3.06237 45.7576C3.17849 45.9139 3.28009 46.056 3.39621 46.1981C3.46878 46.2976 3.55587 46.3971 3.64295 46.4965C3.81713 46.7097 3.9913 46.9086 4.16548 47.1076C4.20902 47.1644 4.26708 47.2213 4.32514 47.2781C4.3832 47.3492 4.45577 47.4202 4.51383 47.4771C7.3587 50.4613 10.9148 52.0955 13.9629 52.8486C31.5401 57.1829 49.6834 47.8465 57.9132 42.7307H51.2655C41.9035 46.6102 29.5371 49.765 17.6496 46.8234V46.8518Z" fill="#1466A7"/>
<path d="M220.463 29.8848C211.653 29.8848 208.706 32.869 208.706 36.5353C208.706 40.2016 211.754 43.1858 220.463 43.1858C229.172 43.1858 232.22 40.2016 232.22 36.5353C232.22 32.869 229.056 29.8848 220.463 29.8848ZM220.463 40.0595C215.194 40.0595 213.67 38.4821 213.67 36.5353C213.67 34.5884 214.976 33.0111 220.463 33.0111C225.383 33.0111 227.256 34.5884 227.256 36.5353C227.256 38.4821 225.499 40.0595 220.463 40.0595Z" fill="#333333"/>
<path d="M74.6631 20.8042H77.1306C76.579 21.799 76.2742 22.9216 76.2742 24.1295C76.2742 27.9663 79.4529 31.0784 83.3719 31.0784C87.2908 31.0784 90.4695 27.9663 90.4695 24.1295C90.4695 22.9216 90.1502 21.799 89.6132 20.8042H92.2258V17.1947H85.4184V15.1768H83.2703C82.2978 15.1484 81.6011 15.0916 81.1511 15.049V17.0953H81.1366V17.1947H76.9854C76.071 17.1805 75.2727 17.1379 74.6631 17.0953V20.8042ZM83.3719 21.1026C85.0846 21.1026 86.4635 22.4526 86.4635 24.1153C86.4635 25.7779 85.0846 27.1421 83.3719 27.1421C81.6591 27.1421 80.2948 25.7921 80.2948 24.1153C80.2948 22.4384 81.6737 21.1026 83.3719 21.1026Z" fill="#333333"/>
<path d="M80.6718 36.6632V32.0874H79.7139C78.0447 32.0874 76.7674 32.0022 76.0271 31.9453V37.1606H76.0126V38.2832C76.0126 38.2832 75.7659 41.5943 79.859 41.5943H99.9618V37.7858H82.1959C82.1959 37.7858 80.6718 38.1411 80.6718 36.649V36.6632Z" fill="#333333"/>
<path d="M99.6861 16.1006H97.3492C96.3622 16.0721 95.593 16.0153 95.085 15.9727V18.9284C95.085 19.0563 95.085 19.1984 95.085 19.3263V33.679H99.6861V25.65H102.241V22.0406H99.6861V16.0863V16.1006Z" fill="#333333"/>
<path d="M134.174 28.819V25.2095H132.78V19.2269C132.78 16.0153 129.543 16.3421 129.543 16.3421H111.284C110.37 16.3279 109.571 16.2853 108.962 16.2427V19.0279V19.0564V19.9374H126.64C128.368 19.9374 128.281 21.4437 128.281 21.4437V25.1953H110.761C109.687 25.1811 108.715 25.1385 107.975 25.0816V27.8385C107.975 27.8385 107.975 27.8953 107.975 27.9237V28.8048H118.309V32.1443H111.284C110.37 32.13 109.571 32.0874 108.962 32.0448V34.83C108.962 34.83 108.962 34.8585 108.962 34.8727V35.7537H127.047C128.774 35.7537 128.687 37.26 128.687 37.26V42.6885H133.187V35.0432C133.187 31.8316 129.95 32.1443 129.95 32.1443H122.591V28.8048H134.159L134.174 28.819Z" fill="#333333"/>
<path d="M144.957 29.1885C143.927 29.16 142.969 29.1174 142.243 29.089V32.7979H167.673V29.1885H144.943H144.957Z" fill="#333333"/>
<path d="M164.668 34.29H145C144.101 34.2758 143.331 34.2332 142.722 34.1906V37.3027H160.56C162.287 37.3027 162.2 38.809 162.2 38.809V42.7027H166.7V36.4074C166.7 34.29 164.668 34.29 164.668 34.29Z" fill="#333333"/>
<path d="M142.809 18.7153V24.6411C142.809 24.6411 142.563 27.6679 146.656 27.6679H166.555V24.4564H148.093C147.44 24.4564 147.091 24.4422 147.091 23.49V23.149H166.555V20.4206H147.091V19.1558H166.555V16.129H145.596C144.29 16.129 143.361 16.0579 142.795 16.0011V18.3032C142.795 18.4311 142.795 18.5732 142.795 18.7295L142.809 18.7153Z" fill="#333333"/>
<path d="M186.136 20.8042H190.65V17.1947H183.842V15.1768H181.694C180.707 15.1484 179.996 15.0916 179.546 15.049V16.6832V17.1805H175.395C174.48 17.1663 173.697 17.1237 173.087 17.0811V20.7758H186.136V20.8042ZM181.563 22.5237C177.993 22.609 175.046 24.5842 174.466 29.9132C174.466 29.9132 174.408 30.5953 174.422 30.9363C174.422 31.2632 174.466 31.9595 174.466 31.9595C175.061 37.4021 178.109 39.349 181.796 39.349C185.482 39.349 188.545 37.4874 189.126 31.9595C189.126 31.9595 189.184 31.2774 189.169 30.9363C189.169 30.6095 189.126 29.9132 189.126 29.9132C188.545 24.5132 185.613 22.609 182.042 22.5237H181.563ZM178.806 31.86C178.777 31.5616 178.777 31.249 178.762 30.9221C178.762 30.5953 178.762 30.2826 178.806 29.9842L178.835 29.7853C179.198 26.7584 180.388 25.9342 181.81 25.9342C183.233 25.9342 184.437 26.659 184.8 29.7853V29.9842C184.844 30.2826 184.844 30.5811 184.858 30.9221C184.844 31.2632 184.844 31.5616 184.815 31.86V32.059C184.437 35.1853 183.247 35.91 181.81 35.91C180.373 35.91 179.198 35.0858 178.835 32.059L178.806 31.86Z" fill="#333333"/>
<path d="M196.354 16.1006C195.367 16.0721 194.597 16.0153 194.089 15.9727V19.3263V23.2769H189.996V26.8863H194.089V42.9727H198.676V16.1006H196.339H196.354Z" fill="#333333"/>
<path d="M218.184 20.0794H224.222V16.47H208.982C208.068 16.4557 207.284 16.4131 206.674 16.3705V20.0794H212.712C212.364 21.401 210.912 24.6979 205.121 26.7726L206.326 29.8847C206.326 29.8847 212.204 29.0747 215.456 24.2857C218.562 27.4405 223.497 28.5915 223.497 28.5915L224.701 25.4794C219.911 24.5557 218.562 21.401 218.199 20.0794H218.184Z" fill="#333333"/>
<path d="M229.941 16.1006C228.954 16.0721 228.199 16.0153 227.691 15.9727V20.3779V20.7474H224.672V24.3569H227.691V30.2969H232.278V16.1006H229.941Z" fill="#333333"/>
<path d="M254.979 35.8816V30.1689H264.834V16.1005H262.497C261.51 16.0721 260.755 16.0152 260.247 15.9726V19.781H245.196V16.0579H244.238C242.554 16.0579 241.262 15.9726 240.522 15.9158V18.6868C240.522 18.8716 240.537 19.0421 240.537 19.241V26.8437C240.537 26.8437 240.29 30.1547 244.368 30.1547H250.392V35.8674H242.104C241.03 35.8531 240.058 35.7963 239.317 35.7537V38.4963C239.317 38.4963 239.317 38.5531 239.317 38.5958V39.4768H265.981V35.8674H254.964L254.979 35.8816ZM246.705 26.3747C246.705 26.3747 245.181 26.4742 245.181 25.2379V23.1205H260.233V26.3747H246.691H246.705Z" fill="#333333"/>
<path d="M279.494 37.8001C279.494 37.8001 277.97 38.1553 277.97 36.6632V32.0874H277.012C275.313 32.0874 274.022 32.0022 273.296 31.9453V34.6169C273.296 34.8158 273.31 35.029 273.31 35.2706V38.269C273.31 38.269 273.064 41.5801 277.157 41.5801H298V37.7858H279.494V37.8001Z" fill="#333333"/>
<path d="M280.104 35.3416H284.69V29.4869H293.109V31.7605H288.304V35.37H297.681V33.6932H297.695V16.1005H295.358C294.371 16.0721 293.617 16.0153 293.109 15.9726V20.2926V25.8632H286.664C287.796 24.6269 288.493 22.9926 288.493 21.2021C288.493 17.3653 285.314 14.2532 281.395 14.2532C277.476 14.2532 274.298 17.3653 274.298 21.2021C274.298 22.9926 274.994 24.6269 276.127 25.8632H275.009C274.094 25.849 273.311 25.8063 272.687 25.7637V29.4726H280.118V35.3274L280.104 35.3416ZM278.318 21.2163C278.318 19.5537 279.697 18.2037 281.395 18.2037C283.094 18.2037 284.472 19.5537 284.472 21.2163C284.472 22.879 283.094 24.2432 281.395 24.2432C279.697 24.2432 278.318 22.8932 278.318 21.2163Z" fill="#333333"/>
</g>
<defs>
<clipPath id="clip0_87_1275">
<rect width="298" height="54" fill="white"/>
</clipPath>
</defs>
</svg>
