<svg width="63" height="54" viewBox="0 0 63 54" fill="none" xmlns="http://www.w3.org/2000/svg">
<path d="M17.6545 46.8646C14.4177 46.0688 11.3116 45.0741 9.04728 42.2462C9.04728 42.2462 9.03277 42.2178 9.01825 42.2036C8.97471 42.1467 8.93116 42.0899 8.88762 42.033C8.82956 41.962 8.7715 41.8909 8.71345 41.8057C8.71345 41.8057 8.71344 41.7915 8.69893 41.7772C8.61184 41.6636 8.53927 41.5499 8.4667 41.422C3.50269 33.7909 9.52626 21.1151 21.9508 13.1004C28.0179 9.1783 34.4914 7.07514 40.1086 6.87619C43.2438 6.77672 45.9145 7.78567 47.3224 9.94567C49.9931 14.0383 47.0756 20.6462 40.8053 24.6962C38.4104 26.2451 35.8703 27.1972 33.4899 27.5383L39.8909 14.8909H26.3778L12.705 42.0757H26.2036L31.6466 31.1336L40.2392 43.0704C42.4164 42.1894 44.5936 41.0809 46.6982 39.7167C59.4131 31.503 65.8285 16.852 59.9937 7.87093C53.0702 -2.75854 34.027 -2.41749 18.4092 7.65777C2.79147 17.7615 -4.26264 34.5441 2.66084 45.1736C2.79147 45.3725 2.93662 45.5715 3.06725 45.7704C3.18337 45.9267 3.28497 46.0688 3.40109 46.2109C3.47366 46.3104 3.56075 46.4099 3.64784 46.5094C3.82201 46.7225 3.99619 46.9215 4.17036 47.1204C4.21391 47.1772 4.27197 47.2341 4.33002 47.2909C4.38808 47.362 4.46066 47.433 4.51871 47.4899C7.36358 50.4741 10.9197 52.1083 13.9677 52.8615C31.545 57.1957 49.6883 47.8594 57.9181 42.7436H51.2704C41.9084 46.623 29.5419 49.7778 17.6545 46.8362V46.8646Z" fill="#BBC4C7"/>
</svg>
